<?xml version="1.0" encoding="utf-8"?>
<!-- Generator: Adobe Illustrator 18.0.0, SVG Export Plug-In . SVG Version: 6.00 Build 0)  -->
<!DOCTYPE svg PUBLIC "-//W3C//DTD SVG 1.1//EN" "http://www.w3.org/Graphics/SVG/1.1/DTD/svg11.dtd">
<svg version="1.1" id="Layer_1" xmlns="http://www.w3.org/2000/svg" xmlns:xlink="http://www.w3.org/1999/xlink" x="0px" y="0px"
	 viewBox="-2 0 70 110" enable-background="new -2 0 70 110" xml:space="preserve">
<g>
	<circle fill="#FFFFFF" stroke="#7E9B3D" stroke-width="3" stroke-miterlimit="10" cx="31.7" cy="32.1" r="23.1"/>
	<line fill="none" stroke="#E79D2D" stroke-width="3" stroke-miterlimit="10" x1="7.9" y1="66.8" x2="53.2" y2="66.8"/>
	<g enable-background="new    ">
		<path fill="#2B4F7A" d="M21.9,87.2l-0.2-1.1l-0.6-1.9l-2.4-0.1l-2.2,0.1l-0.8,1.9l-0.3,1.2H14l4-10.9h1.7l3.6,10.9L21.9,87.2
			L21.9,87.2z M18.9,77.7h-0.1l-2,5.4h1.9h2L18.9,77.7z"/>
		<path fill="#2B4F7A" d="M31.2,83.1c0,2.7-1.4,4.3-3.8,4.3c-0.5,0-1-0.1-1.5-0.2v3.2h-1.2l0.1-6.4l-0.1-4.5l1.3-0.1v1.1h0.1
			c0.8-0.6,1.3-1,2.1-1.2C30.2,79.3,31.2,80.7,31.2,83.1z M30,83.2c0-1.8-0.7-2.8-1.9-2.8c-0.7,0-1.4,0.4-2.1,1.2v2.1v2.1
			c0.6,0.3,1.1,0.4,1.7,0.4C29.1,86.4,30,85.3,30,83.2z"/>
		<path fill="#2B4F7A" d="M39.8,83.1c0,2.7-1.4,4.3-3.8,4.3c-0.5,0-1-0.1-1.5-0.2v3.2h-1.3l0.1-6.4l-0.1-4.4l1.3-0.1v1.1h0.2
			c0.8-0.6,1.3-1,2.1-1.2C38.8,79.3,39.8,80.7,39.8,83.1z M38.6,83.2c0-1.8-0.7-2.8-1.9-2.8c-0.7,0-1.4,0.4-2.1,1.2v2.1v2.1
			c0.6,0.3,1.1,0.4,1.7,0.4C37.7,86.4,38.6,85.3,38.6,83.2z"/>
		<path fill="#2B4F7A" d="M45.6,85.8l0.2,0.1l-0.1,0.9c-0.6,0.3-1.1,0.4-1.7,0.5c-1.3-0.3-1.8-0.9-1.8-2.2l0.1-1.2v-3.5h-1.1
			l-0.1-0.1l0.1-0.8h1v-1.3l1.2-0.5l0.1,0.1v1.6h2.2l0.1,0.1l-0.1,0.8h-2.3L43.3,85c0,0.9,0.3,1.2,1.1,1.2
			C44.7,86.2,45.1,86.1,45.6,85.8z"/>
		<path fill="#2B4F7A" d="M48.2,86.5c0,0.5-0.3,0.8-0.8,0.8s-0.7-0.3-0.7-0.8s0.3-0.8,0.8-0.8C47.9,85.7,48.2,86,48.2,86.5z"/>
	</g>
	<g enable-background="new    ">
		<path fill="#2B4F7A" d="M10.3,96.8L10.1,98H9.9c-0.5-0.3-1.1-0.6-1.8-0.6c-1.3,0-2.1,1.1-2.1,2.9s0.8,3,2.2,3
			c0.6,0,1.3-0.2,1.9-0.6l0.2,0.1l-0.2,1.1c-0.6,0.3-1.4,0.4-2.1,0.4c-2.1,0-3.3-1.5-3.3-4s1.3-4.1,3.5-4.1
			C8.9,96.3,9.7,96.5,10.3,96.8z"/>
		<path fill="#2B4F7A" d="M16.9,98.9c0-0.9-0.4-1.5-1.3-1.5c-0.8,0-1.6,0.4-2.3,1.2v2.1l0.1,3.4h-1.3l0.1-3.3l-0.1-8.5l1.3-0.1
			l-0.1,5.3h0.1c0.7-0.6,1.5-1,2.2-1.2c1.7,0,2.6,0.8,2.6,2.3v2.2l0.1,3.4h-1.4V98.9z"/>
		<path fill="#2B4F7A" d="M21.4,100.3c0,1.8,0.8,3,2.3,3c0.7,0,1.6-0.3,2.3-0.8l0.2,0.1l-0.1,1.1c-0.7,0.4-1.6,0.6-2.4,0.6
			c-2.2,0-3.5-1.5-3.5-4s1.4-4.1,3.7-4.1c1.7,0,2.7,1.1,2.7,2.9c0,0.2,0,0.6,0,0.8l-0.3,0.2L21.4,100.3L21.4,100.3z M21.5,99.4
			l3.7-0.1v-0.2c0-1.2-0.7-1.8-1.6-1.8C22.5,97.3,21.7,98,21.5,99.4z"/>
		<path fill="#2B4F7A" d="M33.4,96.8L33.2,98H33c-0.5-0.3-1.1-0.6-1.8-0.6c-1.3,0-2.1,1.1-2.1,2.9s0.8,3,2.2,3
			c0.6,0,1.3-0.2,1.9-0.6l0.2,0.1l-0.2,1.1c-0.6,0.3-1.4,0.4-2.1,0.4c-2.1,0-3.3-1.5-3.3-4s1.3-4.1,3.5-4.1
			C32,96.3,32.8,96.5,33.4,96.8z"/>
		<path fill="#2B4F7A" d="M36.4,104.2h-1.3l0.1-3.3l-0.1-8.5l1.3-0.1l-0.1,8.5L36.4,104.2z M38,100c1,1.4,2.2,2.7,3.3,4v0.2
			c-0.4,0.1-0.8,0.2-1.2,0.2l-0.2-0.1c-1.1-1.3-2.2-2.7-3.2-4.2V100l2.4-2.9l0.5-0.7h1.5L38,100z"/>
		<path fill="#2B4F7A" d="M44.2,104.2h-1.3l0.1-3.3l-0.1-8.5l1.3-0.1l-0.1,8.5L44.2,104.2z"/>
		<path fill="#2B4F7A" d="M48.4,93.7c0,0.5-0.3,0.8-0.8,0.8s-0.7-0.3-0.7-0.8s0.3-0.8,0.8-0.8C48.1,92.9,48.4,93.2,48.4,93.7z
			 M48.3,104.2H47l0.1-3.3L47,96.5l1.3-0.1l-0.1,4.4L48.3,104.2z"/>
		<path fill="#2B4F7A" d="M55,96.7l-0.2,1.1l-0.2,0.1c-0.6-0.4-1.1-0.6-1.6-0.6c-0.8,0-1.3,0.5-1.3,1.1c0,1.6,3.5,1.2,3.5,3.6
			c0,1.2-1,2.4-2.8,2.4c-0.7,0-1.5-0.2-2.3-0.6l0.2-1.2l0.2-0.1c0.6,0.6,1.4,0.8,2.1,0.8c0.9,0,1.4-0.6,1.4-1.2
			c0-1.6-3.6-1.2-3.6-3.7c0-1.3,1-2.2,2.7-2.2C53.7,96.3,54.4,96.4,55,96.7z"/>
		<path fill="#2B4F7A" d="M61,102.8l0.2,0.1l-0.1,0.9c-0.6,0.3-1.1,0.4-1.7,0.5c-1.3-0.3-1.8-0.9-1.8-2.2l0.1-1.2v-3.5h-1.1
			l-0.1-0.1l0.1-0.8h1v-1.3l1.2-0.5l0.1,0.1v1.6h2.3l0.1,0.1l-0.1,0.8h-2.5v4.7c0,0.9,0.3,1.2,1.1,1.2
			C60.1,103.2,60.5,103.1,61,102.8z"/>
	</g>
	<g>
		<g>
			<g>
				<path fill="#2B4F7A" d="M45.1,21.6L45,43.7L43.7,46H18.6l0.1-22.2l2.2-2.1L45.1,21.6L45.1,21.6z M20.7,44.1h20.5l0.1-19H20.8
					L20.7,44.1z"/>
			</g>
		</g>
		<path fill="#2B4F7A" d="M31,40.1h-1.3l-0.3-0.2c-1.4-1.2-4.3-7-4.3-8.6v-0.2l0.1-0.2c0.3-0.6,1.9-2.2,2.7-2.5l0.2-0.1H29l0.2,0.7
			c0.2,1.3,0.6,2.8,1,4.1c0.1-0.3,0.3-0.5,0.4-0.8c2.4-4.8,4.5-11.9,7-15.1c0.4-0.5,1.2-0.7,2.6-0.7c1.3,0,2.2,0.1,3.2,0.4
			c-2.2,3-5.3,9.1-8.5,15.9c-1,2.1-2.4,4.9-3.6,6.9L31,40.1z"/>
	</g>
</g>
</svg>
