<?xml version="1.0" encoding="utf-8"?>
<!-- Generator: Adobe Illustrator 18.0.0, SVG Export Plug-In . SVG Version: 6.00 Build 0)  -->
<!DOCTYPE svg PUBLIC "-//W3C//DTD SVG 1.1//EN" "http://www.w3.org/Graphics/SVG/1.1/DTD/svg11.dtd">
<svg version="1.1" id="Layer_1" xmlns="http://www.w3.org/2000/svg" xmlns:xlink="http://www.w3.org/1999/xlink" x="0px" y="0px"
	 viewBox="-2 0 70 110" enable-background="new -2 0 70 110" xml:space="preserve">
<g>
	<circle fill="#FFFFFF" stroke="#7E9B3D" stroke-width="3" stroke-miterlimit="10" cx="32.4" cy="32.1" r="23.1"/>
	<line fill="none" stroke="#E79D2D" stroke-width="3" stroke-miterlimit="10" x1="9.5" y1="66.8" x2="54.9" y2="66.8"/>
	<g enable-background="new    ">
		<path fill="#2B4F7A" d="M21.8,77l-0.3,1.3h-0.2c-0.7-0.6-1.6-1-2.6-1c-2.1,0-3.3,1.5-3.3,4.4s1.2,4.4,3.3,4.4c1,0,2-0.4,2.8-1
			l0.2,0.1l-0.1,1.3c-1,0.5-1.9,0.8-3,0.8c-2.9,0-4.6-2-4.6-5.5c0-3.6,1.8-5.6,4.8-5.6C19.9,76.2,20.9,76.5,21.8,77z"/>
		<path fill="#2B4F7A" d="M28.5,81.9c0-0.9-0.4-1.5-1.3-1.5c-0.8,0-1.6,0.4-2.3,1.2v2.1l0.1,3.4h-1.3l0.1-3.3l-0.1-8.5l1.3-0.1
			l-0.1,5.3H25c0.7-0.6,1.5-1,2.2-1.2c1.7,0,2.6,0.8,2.6,2.3v2.2l0.1,3.4h-1.4L28.5,81.9z"/>
		<path fill="#2B4F7A" d="M33,83.3c0,1.8,0.8,3,2.3,3c0.7,0,1.6-0.3,2.3-0.8l0.2,0.1l-0.1,1.1c-0.7,0.4-1.6,0.6-2.4,0.6
			c-2.2,0-3.5-1.5-3.5-4s1.4-4.1,3.7-4.1c1.7,0,2.7,1.1,2.7,2.9c0,0.2,0,0.6,0,0.8l-0.3,0.2L33,83.3L33,83.3z M33,82.3l3.7-0.1V82
			c0-1.2-0.7-1.8-1.6-1.8C34,80.3,33.2,81,33,82.3z"/>
		<path fill="#2B4F7A" d="M45,79.7l-0.2,1.2L44.5,81c-0.5-0.3-1.1-0.6-1.8-0.6c-1.3,0-2.1,1.1-2.1,2.9s0.8,3,2.2,3
			c0.6,0,1.3-0.2,1.9-0.6l0.2,0.1l-0.2,1.1c-0.6,0.3-1.4,0.4-2.1,0.4c-2.1,0-3.3-1.5-3.3-4s1.3-4.1,3.5-4.1
			C43.5,79.3,44.4,79.5,45,79.7z"/>
		<path fill="#2B4F7A" d="M48,87.2h-1.3l0.1-3.3l-0.1-8.5l1.3-0.1l-0.1,8.5L48,87.2z M49.5,83c1,1.4,2.2,2.7,3.3,4v0.2
			c-0.4,0.1-0.8,0.2-1.2,0.2l-0.2-0.1c-1.1-1.3-2.2-2.7-3.2-4.2V83l2.4-2.9l0.5-0.7h1.5L49.5,83z"/>
	</g>
	<g enable-background="new    ">
		<path fill="#2B4F7A" d="M7.7,102.7L7.7,102.7l2-5.2l0.3-1.1h1.2l-2.8,7.5c-0.7,2-1.8,3-3.9,3.5H4.4c-0.3-0.3-0.5-0.5-0.6-0.9v-0.2
			c1.7-0.3,2.6-0.9,3.4-2.2l-2.9-7.8l1.3-0.1l0.3,1L7.7,102.7z"/>
		<path fill="#2B4F7A" d="M18.7,100.2c0,2.6-1.3,4.1-3.5,4.1c-2.1,0-3.3-1.4-3.3-3.9c0-2.6,1.3-4.1,3.6-4.1
			C17.5,96.3,18.7,97.7,18.7,100.2z M13.1,100.1c0,2.2,0.8,3.3,2.2,3.3c1.4,0,2.2-1,2.2-2.9c0-2.2-0.8-3.3-2.2-3.3
			C13.8,97.2,13.1,98.2,13.1,100.1z"/>
		<path fill="#2B4F7A" d="M26.5,102.5c0,0.5,0.2,0.6,0.5,0.6c0.2,0,0.3,0,0.6-0.1l0.1,0.1l-0.1,0.8c-0.3,0.2-0.6,0.3-1,0.3
			c-0.7-0.1-1.1-0.5-1.2-1.2h-0.1c-0.7,0.6-1.4,1-2.1,1.2c-1.7,0-2.6-0.8-2.5-2.3v-2.2l-0.1-3.3l1.4-0.1l-0.1,5.3
			c0,0.9,0.4,1.5,1.3,1.5c0.7,0,1.4-0.4,2.1-1v-5.6l1.3-0.1L26.5,102.5z"/>
		<path fill="#2B4F7A" d="M33.5,96.4v1.3l-0.2,0.1c-0.2-0.1-0.5-0.1-0.6-0.1c-0.7,0-1.4,0.5-2,1.9v1.2l0.1,3.4h-1.3l0.1-3.3
			l-0.1-4.4l1.3-0.1V98h0.1c0.7-1.2,1.5-1.6,2.2-1.6C33.2,96.4,33.4,96.4,33.5,96.4z"/>
		<path fill="#2B4F7A" d="M41.8,96.7l-0.2,1.1l-0.2,0.1c-0.6-0.4-1.1-0.6-1.6-0.6c-0.8,0-1.3,0.5-1.3,1.1c0,1.6,3.5,1.2,3.5,3.6
			c0,1.2-1,2.4-2.8,2.4c-0.7,0-1.5-0.2-2.3-0.6l0.2-1.2l0.2-0.1c0.6,0.6,1.4,0.8,2.1,0.8c0.9,0,1.4-0.6,1.4-1.2
			c0-1.6-3.6-1.2-3.6-3.7c0-1.3,1-2.2,2.7-2.2C40.5,96.3,41.2,96.4,41.8,96.7z"/>
		<path fill="#2B4F7A" d="M45.5,104.2h-1.3l0.1-3.3l-0.1-8.5l1.3-0.1l-0.1,8.5L45.5,104.2z M47,100c1,1.4,2.2,2.7,3.3,4v0.2
			c-0.4,0.1-0.8,0.2-1.2,0.2l-0.2-0.1c-1.1-1.3-2.2-2.7-3.2-4.2V100l2.4-2.9l0.5-0.7h1.5L47,100z"/>
		<path fill="#2B4F7A" d="M53.2,93.7c0,0.5-0.3,0.8-0.8,0.8s-0.7-0.3-0.7-0.8s0.3-0.8,0.8-0.8C53,92.9,53.2,93.2,53.2,93.7z
			 M53,104.2h-1.3l0.1-3.3l-0.1-4.4l1.3-0.1l-0.1,4.4L53,104.2z"/>
		<path fill="#2B4F7A" d="M60.8,98.9c0-0.9-0.4-1.5-1.3-1.5c-0.8,0-1.5,0.4-2.3,1.2v2.1l0.1,3.4H56l0.1-3.3L56,96.4l1.3-0.1v1.1h0.1
			c0.7-0.6,1.5-1,2.2-1.2c1.7,0,2.6,0.8,2.6,2.3v2.2l0.1,3.4h-1.4L60.8,98.9z"/>
	</g>
	<g>
		<g>
			<path fill="#2B4F7A" d="M49.8,52.9c-0.7-0.9-5.9-8.9-9-13.6c4.1-4.3,4.7-11.1,1.2-16.1c-4.1-5.8-12-7.2-17.8-3.1
				s-7.2,12-3.1,17.8c3.6,5.1,10.3,6.8,15.8,4.3c3.1,4.6,8.3,12.5,9,13.6C46.8,57.2,50.8,54.2,49.8,52.9z"/>
		</g>
		<g>
			<path fill="none" stroke="#2B4F7A" stroke-miterlimit="10" d="M49.8,52.9c-0.7-0.9-5.9-8.9-9-13.6c4.1-4.3,4.7-11.1,1.2-16.1
				c-4.1-5.8-12-7.2-17.8-3.1s-7.2,12-3.1,17.8c3.6,5.1,10.3,6.8,15.8,4.3c3.1,4.6,8.3,12.5,9,13.6C46.8,57.2,50.8,54.2,49.8,52.9z"
				/>
		</g>
	</g>
	<circle fill="#FFFFFF" stroke="#2B4F7A" stroke-miterlimit="10" cx="31.6" cy="30.6" r="10.5"/>
</g>
</svg>
