<?xml version="1.0" encoding="utf-8"?>
<!-- Generator: Adobe Illustrator 18.0.0, SVG Export Plug-In . SVG Version: 6.00 Build 0)  -->
<!DOCTYPE svg PUBLIC "-//W3C//DTD SVG 1.1//EN" "http://www.w3.org/Graphics/SVG/1.1/DTD/svg11.dtd">
<svg version="1.1" id="Layer_1" xmlns="http://www.w3.org/2000/svg" xmlns:xlink="http://www.w3.org/1999/xlink" x="0px" y="0px"
	 viewBox="0.4 0 70 110" enable-background="new 0.4 0 70 110" xml:space="preserve">
<g>
	<circle fill="#FFFFFF" stroke="#7E9B3D" stroke-width="3" stroke-miterlimit="10" cx="34.9" cy="32.1" r="23.1"/>
	<line fill="none" stroke="#E79D2D" stroke-width="3" stroke-miterlimit="10" x1="11.3" y1="62.9" x2="56.7" y2="62.9"/>
	<g enable-background="new    ">
		<path fill="#2B4F7A" d="M9.5,73.9l-0.3,1.2l-0.2,0c-0.7-0.6-1.6-1-2.6-1c-2.1,0-3.3,1.5-3.3,4.4c0,2.9,1.2,4.4,3.3,4.4
			c1,0,2-0.4,2.8-1L9.5,82l-0.1,1.3c-1,0.5-1.9,0.8-3,0.8c-2.9,0-4.6-2-4.6-5.5c0-3.6,1.8-5.6,4.8-5.6C7.7,73.1,8.7,73.3,9.5,73.9z"
			/>
		<path fill="#2B4F7A" d="M17.2,80c0,2.6-1.3,4.1-3.5,4.1c-2.1,0-3.3-1.4-3.3-3.9c0-2.6,1.3-4.1,3.6-4.1C16,76.1,17.2,77.5,17.2,80z
			 M11.6,79.9c0,2.2,0.8,3.3,2.2,3.3c1.4,0,2.2-1,2.2-2.9c0-2.2-0.8-3.3-2.2-3.3C12.3,77.1,11.6,78.1,11.6,79.9z"/>
		<path fill="#2B4F7A" d="M24.2,78.7c0-0.9-0.4-1.5-1.3-1.5c-0.8,0-1.5,0.4-2.3,1.2l0,2.1l0.1,3.4h-1.3l0.1-3.3l-0.1-4.4l1.3-0.1
			l0,1.1h0.1c0.7-0.6,1.5-1,2.2-1.2c1.7,0,2.6,0.8,2.6,2.3l0,2.2l0.1,3.4h-1.4L24.2,78.7z"/>
		<path fill="#2B4F7A" d="M31.7,82.7l0.2,0.1l-0.1,0.9c-0.6,0.3-1.1,0.4-1.7,0.5c-1.3-0.3-1.8-0.9-1.8-2.2l0.1-1.2l0-3.5h-1.1
			l-0.1-0.1l0.1-0.8h1V75l1.2-0.5l0.1,0.1l0,1.6h2.3l0.1,0.1l-0.1,0.8h-2.3l-0.1,4.6c0,0.9,0.3,1.2,1.1,1.2
			C30.9,83,31.2,82.9,31.7,82.7z"/>
		<path fill="#2B4F7A" d="M38.4,78.2c0,0.6-0.2,3.6-0.2,4.2c0,0.5,0.1,0.7,0.5,0.7c0.1,0,0.3,0,0.6-0.1l0.1,0.1l-0.1,0.8
			c-0.3,0.2-0.6,0.3-1,0.3c-0.7-0.1-1.1-0.5-1.2-1.3h-0.1c-0.6,0.6-1.2,1-1.8,1.3c-1.5,0-2.4-0.8-2.4-2.1c0-1,0.6-1.6,1.6-1.8
			l2.8-0.6l0-1.1c0-0.9-0.5-1.4-1.3-1.4c-0.8,0-1.5,0.4-2.4,1.1l-0.1-0.1l-0.2-1c0.9-0.7,1.9-1.1,2.9-1.1
			C37.5,76.1,38.4,76.9,38.4,78.2z M34.7,81c-0.4,0.1-0.6,0.3-0.6,0.8c0,0.7,0.5,1.2,1.2,1.2c0.7,0,1.3-0.4,1.9-1.2l0.1-1.4L34.7,81
			z"/>
		<path fill="#2B4F7A" d="M46.2,76.6L46,77.7l-0.2,0.1c-0.5-0.3-1.1-0.6-1.8-0.6c-1.3,0-2.1,1.1-2.1,2.9c0,1.8,0.8,3,2.2,3
			c0.6,0,1.3-0.2,1.9-0.6l0.2,0.1l-0.2,1.1c-0.6,0.3-1.4,0.4-2.1,0.4c-2.1,0-3.3-1.5-3.3-4c0-2.5,1.3-4.1,3.5-4.1
			C44.8,76.1,45.7,76.3,46.2,76.6z"/>
		<path fill="#2B4F7A" d="M51.5,82.7l0.2,0.1l-0.1,0.9c-0.6,0.3-1.1,0.4-1.7,0.5c-1.3-0.3-1.8-0.9-1.8-2.2l0.1-1.2l0-3.5H47
			l-0.1-0.1l0.1-0.8h1V75l1.2-0.5l0.1,0.1l0,1.6h2.3l0.1,0.1l-0.1,0.8h-2.3l-0.1,4.6c0,0.9,0.3,1.2,1.1,1.2
			C50.7,83,51,82.9,51.5,82.7z"/>
		<path fill="#2B4F7A" d="M61.8,82.4c0,0.5,0.2,0.6,0.5,0.6c0.2,0,0.3,0,0.6-0.1l0.1,0.1l-0.1,0.8c-0.3,0.2-0.6,0.3-1,0.3
			c-0.7-0.1-1.1-0.5-1.2-1.2h-0.1c-0.7,0.6-1.4,1-2.1,1.2c-1.7,0-2.6-0.8-2.5-2.3l0-2.2L56,76.3l1.4-0.1l-0.1,5.3
			c0,0.9,0.4,1.5,1.3,1.5c0.7,0,1.4-0.4,2.1-1v-5.6l1.3-0.1L61.8,82.4z"/>
		<path fill="#2B4F7A" d="M68.8,76.5l-0.2,1.1l-0.2,0.1c-0.6-0.4-1.1-0.6-1.6-0.6c-0.8,0-1.3,0.5-1.3,1.1c0,1.6,3.5,1.2,3.5,3.6
			c0,1.2-1,2.4-2.8,2.4c-0.7,0-1.5-0.2-2.3-0.6l0.2-1.2l0.2-0.1c0.6,0.6,1.4,0.8,2.1,0.8c0.9,0,1.4-0.6,1.4-1.2
			c0-1.6-3.6-1.2-3.6-3.7c0-1.3,1-2.2,2.7-2.2C67.5,76.1,68.2,76.2,68.8,76.5z"/>
	</g>
	<polygon fill="#2B4F7A" points="52.1,39.4 22.8,43.9 18.9,23.6 48.2,19.1 	"/>
	<polygon fill="#FFFFFF" points="49.7,37.1 24.4,41 21.3,24.5 46.7,20.6 	"/>
	<polyline fill="none" stroke="#2B4F7A" stroke-miterlimit="10" points="20.5,24.7 36.1,32.2 47.4,20.2 	"/>
	<line fill="none" stroke="#2B4F7A" stroke-miterlimit="10" x1="34.3" y1="31.1" x2="24" y2="42.1"/>
	<line fill="none" stroke="#2B4F7A" stroke-miterlimit="10" x1="49.9" y1="37.8" x2="37.8" y2="30.9"/>
</g>
</svg>
