<?xml version="1.0" encoding="utf-8"?>
<!-- Generator: Adobe Illustrator 18.0.0, SVG Export Plug-In . SVG Version: 6.00 Build 0)  -->
<!DOCTYPE svg PUBLIC "-//W3C//DTD SVG 1.1//EN" "http://www.w3.org/Graphics/SVG/1.1/DTD/svg11.dtd">
<svg version="1.1" id="Layer_1" xmlns="http://www.w3.org/2000/svg" xmlns:xlink="http://www.w3.org/1999/xlink" x="0px" y="0px"
	 viewBox="0 0 180 90" enable-background="new 0 0 180 90" xml:space="preserve">
<g>
	<rect x="2.9" y="11.9" fill="#FFFFFF" stroke="#7E9B3D" stroke-width="3" stroke-miterlimit="10" width="174.3" height="51.8"/>
	<g enable-background="new    ">
		<path fill="#2B4F7A" d="M21.3,85h-1.4l0.1-3.3l-0.1-7.6h1.4l-0.1,7.5L21.3,85z"/>
		<path fill="#2B4F7A" d="M28.8,73.2l-0.1,1.1l-0.1,0.1c-0.5-0.2-0.8-0.3-1.2-0.3c-0.9,0-1.4,0.5-1.4,1.6l0,1.6h2l0.1,0.1L28,78.1
			h-2l0,3.5L26,85h-1.3l0.1-3.3l0-3.6h-1.2L23.5,78l0.1-0.8h1.2l0-1.4c0-1.8,1-2.8,2.8-2.8C27.9,73,28.3,73.1,28.8,73.2z"/>
		<path fill="#2B4F7A" d="M34.4,83.5h0.1l1.9-5.2l0.3-1.1h1.2l-2.8,7.5c-0.7,2-1.8,3-3.9,3.5h-0.1c-0.3-0.3-0.5-0.5-0.6-0.9l0-0.2
			c1.7-0.3,2.6-0.9,3.4-2.2L31,77.2l1.3-0.1l0.3,1L34.4,83.5z"/>
		<path fill="#2B4F7A" d="M45.4,81c0,2.6-1.3,4.1-3.5,4.1c-2.1,0-3.3-1.4-3.3-3.9c0-2.6,1.3-4.1,3.6-4.1
			C44.2,77.1,45.4,78.5,45.4,81z M39.8,80.9c0,2.2,0.8,3.3,2.2,3.3c1.4,0,2.2-1,2.2-2.9c0-2.2-0.8-3.3-2.2-3.3
			C40.6,78,39.8,79,39.8,80.9z"/>
		<path fill="#2B4F7A" d="M53.3,83.3c0,0.5,0.2,0.6,0.5,0.6c0.2,0,0.3,0,0.6-0.1l0.1,0.1l-0.1,0.8c-0.3,0.2-0.6,0.3-1,0.3
			c-0.7-0.1-1.1-0.5-1.2-1.2h-0.1c-0.7,0.6-1.4,1-2.1,1.2c-1.7,0-2.6-0.8-2.5-2.3l0-2.2l-0.1-3.3l1.4-0.1l-0.1,5.3
			c0,0.9,0.4,1.5,1.3,1.5c0.7,0,1.4-0.4,2.1-1v-5.6l1.3-0.1L53.3,83.3z"/>
		<path fill="#2B4F7A" d="M64,79.7c0-0.9-0.4-1.5-1.3-1.5c-0.8,0-1.6,0.4-2.3,1.2l0,2.1l0.1,3.4h-1.3l0.1-3.3l-0.1-8.5l1.3-0.1
			l-0.1,5.3h0.1c0.7-0.6,1.5-1,2.2-1.2c1.7,0,2.6,0.8,2.6,2.3l0,2.2l0.1,3.4h-1.4L64,79.7z"/>
		<path fill="#2B4F7A" d="M72.8,79.1c0,0.6-0.2,3.6-0.2,4.2c0,0.5,0.1,0.7,0.5,0.7c0.1,0,0.3,0,0.6-0.1l0.1,0.1l-0.1,0.8
			c-0.3,0.2-0.6,0.3-1,0.3c-0.7-0.1-1.1-0.5-1.2-1.3h-0.1c-0.6,0.6-1.2,1-1.8,1.3c-1.5,0-2.4-0.8-2.4-2.1c0-1,0.6-1.6,1.6-1.8
			l2.8-0.6l0-1.1c0-0.9-0.5-1.4-1.3-1.4c-0.8,0-1.5,0.4-2.4,1.1l-0.1-0.1l-0.2-1c0.9-0.7,1.9-1.1,2.9-1.1
			C71.9,77.1,72.8,77.8,72.8,79.1z M69,82c-0.4,0.1-0.6,0.3-0.6,0.8c0,0.7,0.5,1.2,1.2,1.2c0.7,0,1.3-0.4,1.9-1.2l0.1-1.4L69,82z"/>
		<path fill="#2B4F7A" d="M77.5,83.6L77.5,83.6l2.1-5.4l0.3-1.1h1.2L78.2,85h-1.4l-2.4-7.8l1.3-0.1l0.2,1L77.5,83.6z"/>
		<path fill="#2B4F7A" d="M83,81.1c0,1.8,0.8,3,2.3,3c0.7,0,1.6-0.3,2.3-0.8l0.2,0.1l-0.1,1.1c-0.7,0.4-1.6,0.6-2.4,0.6
			c-2.2,0-3.5-1.5-3.5-4c0-2.5,1.4-4.1,3.7-4.1c1.7,0,2.7,1.1,2.7,2.9c0,0.2,0,0.6,0,0.8L87.7,81L83,81.1L83,81.1z M83,80.1l3.7-0.1
			l0-0.2c0-1.2-0.7-1.8-1.6-1.8C84.1,78,83.3,78.8,83,80.1z"/>
		<path fill="#2B4F7A" d="M97.8,79.1c0,0.6-0.2,3.6-0.2,4.2c0,0.5,0.1,0.7,0.5,0.7c0.1,0,0.3,0,0.6-0.1l0.1,0.1l-0.1,0.8
			c-0.3,0.2-0.6,0.3-1,0.3c-0.7-0.1-1.1-0.5-1.2-1.3h-0.1c-0.6,0.6-1.2,1-1.8,1.3c-1.5,0-2.4-0.8-2.4-2.1c0-1,0.6-1.6,1.6-1.8
			l2.8-0.6l0-1.1c0-0.9-0.5-1.4-1.3-1.4c-0.8,0-1.5,0.4-2.4,1.1l-0.1-0.1l-0.2-1c0.9-0.7,1.9-1.1,2.9-1.1
			C96.8,77.1,97.8,77.8,97.8,79.1z M94,82c-0.4,0.1-0.6,0.3-0.6,0.8c0,0.7,0.5,1.2,1.2,1.2c0.7,0,1.3-0.4,1.9-1.2l0.1-1.4L94,82z"/>
		<path fill="#2B4F7A" d="M107.6,74c3.1,0,4.8,1.8,4.8,5.1c0,3.8-1.9,5.9-5.2,5.9c-0.6,0-2.6-0.1-3.5-0.1h0l0.1-3.3l-0.1-7.6h0
			L107.6,74z M111.1,79.4c0-2.9-1.2-4.3-3.5-4.3c-0.4,0-1.8,0-2.5,0.1l-0.1,6.4l0.1,2.3c0.8,0.1,2.1,0.1,2.4,0.1
			C109.7,83.9,111.1,82.5,111.1,79.4z"/>
		<path fill="#2B4F7A" d="M115.1,81.1c0,1.8,0.8,3,2.3,3c0.7,0,1.6-0.3,2.3-0.8l0.2,0.1l-0.1,1.1c-0.7,0.4-1.6,0.6-2.4,0.6
			c-2.2,0-3.5-1.5-3.5-4c0-2.5,1.4-4.1,3.7-4.1c1.7,0,2.7,1.1,2.7,2.9c0,0.2,0,0.6,0,0.8l-0.3,0.2L115.1,81.1L115.1,81.1z
			 M115.1,80.1l3.7-0.1l0-0.2c0-1.2-0.7-1.8-1.6-1.8C116.2,78,115.4,78.8,115.1,80.1z"/>
		<path fill="#2B4F7A" d="M126.1,77.2v1.3l-0.2,0.1c-0.2-0.1-0.5-0.1-0.6-0.1c-0.7,0-1.4,0.5-2,1.9l0,1.2l0.1,3.4h-1.3l0.1-3.3
			l-0.1-4.4l1.3-0.1l0,1.6h0.1c0.7-1.2,1.5-1.6,2.2-1.6C125.8,77.2,126,77.2,126.1,77.2z"/>
		<path fill="#2B4F7A" d="M137.3,79.7c0-0.9-0.4-1.5-1.3-1.5c-0.8,0-1.5,0.4-2.3,1.2l0,2.2l0.1,3.4h-1.4l0.1-5.3
			c0-0.9-0.4-1.5-1.3-1.5c-0.8,0-1.5,0.5-2.3,1.2l0,2.1l0.1,3.4h-1.3l0.1-3.3l-0.1-4.4l1.3-0.1l0,1.1h0.1c0.7-0.6,1.5-1,2.1-1.2
			c1.3,0,2.1,0.5,2.4,1.3h0.1c0.7-0.7,1.6-1.1,2.3-1.3c1.7,0,2.6,0.8,2.6,2.3l0,2.2l0.1,3.4h-1.4L137.3,79.7z"/>
		<path fill="#2B4F7A" d="M146.3,85H141l0.1-3.3l-0.1-7.6h1.4l-0.1,7.5l0.1,2.3h4l0.1,0.1L146.3,85z"/>
		<path fill="#2B4F7A" d="M149.3,74.5c0,0.5-0.3,0.8-0.8,0.8c-0.5,0-0.7-0.3-0.7-0.8c0-0.5,0.3-0.8,0.8-0.8
			C149,73.7,149.3,74,149.3,74.5z M149.2,85h-1.3l0.1-3.3l-0.1-4.4l1.3-0.1l-0.1,4.4L149.2,85z"/>
		<path fill="#2B4F7A" d="M155.6,83.6l0.2,0.1l-0.1,0.9c-0.6,0.3-1.1,0.4-1.7,0.5c-1.3-0.3-1.8-0.9-1.8-2.2l0.1-1.2l0-3.5h-1.1
			L151,78l0.1-0.8h1V76l1.2-0.5l0.1,0.1l0,1.6h2.3l0.1,0.1l-0.1,0.8h-2.3l-0.1,4.6c0,0.9,0.3,1.2,1.1,1.2
			C154.7,83.9,155.1,83.9,155.6,83.6z"/>
		<path fill="#2B4F7A" d="M157.7,81.1c0,1.8,0.8,3,2.3,3c0.7,0,1.6-0.3,2.3-0.8l0.2,0.1l-0.1,1.1c-0.7,0.4-1.6,0.6-2.4,0.6
			c-2.2,0-3.5-1.5-3.5-4c0-2.5,1.4-4.1,3.7-4.1c1.7,0,2.7,1.1,2.7,2.9c0,0.2,0,0.6,0,0.8l-0.3,0.2L157.7,81.1L157.7,81.1z
			 M157.8,80.1l3.7-0.1l0-0.2c0-1.2-0.7-1.8-1.6-1.8C158.8,78,158,78.8,157.8,80.1z"/>
	</g>
	<path fill="none" stroke="#2B4F7A" stroke-width="3" stroke-miterlimit="10" d="M2.9,41.6c51.2-22.2,130.3-7.4,174.3-3.7"/>
	<line fill="none" stroke="#E79D2D" stroke-width="2" stroke-miterlimit="10" x1="52.4" y1="40.7" x2="34.6" y2="55.8"/>
	<line fill="none" stroke="#E79D2D" stroke-width="2" stroke-miterlimit="10" x1="69.4" y1="46.4" x2="73.4" y2="68.8"/>
	<g>
		<path fill="#2B4F7A" stroke="#FFFFFF" stroke-width="1.1964" stroke-miterlimit="10" d="M66,16.1c0.4-2.4,1-10.9,2.4-13
			s2.1-2.9,5.7-2s9.7,2.2,9.7,2.2l44.4,10.3c0,0,12.8,2.6,14.7,4.6c1.1,1.2,1.8,3,1.6,6.9s-2,6.1-2,6.1l-72.9-18L66,16.1z"/>
		<path fill="#2B4F7A" stroke="#FFFFFF" stroke-width="1.1964" stroke-miterlimit="10" d="M64.4,26.3c0,0,1.5-12,2.4-16.2
			c0.6-2.9,3.7-3.6,6.7-2.8c1.1,0.3,66.6,16.1,68.2,17.3c1.6,1.2,3.2,2.4,1.4,6c-1.9,3.6-9,16.6-9.7,17.6c-0.7,1.1-2.7,1.1-4,1.3
			S63.8,33.2,63.8,33.2L64.4,26.3z"/>
		<path fill="#2B4F7A" stroke="#FFFFFF" stroke-miterlimit="10" d="M105.2,36.4c0,0,2-3.9,1.6-4.9c-0.5-0.9-0.3-0.9-1.2-1.2
			S60.9,18.6,60.1,18.5s-4.9-0.6-5.9,0.6s-2.1,4.8-2.1,4.8l8.4,0.4l13.2,2.2l31.2,8.3L105.2,36.4z"/>
		<path fill="#2B4F7A" stroke="#FFFFFF" stroke-miterlimit="10" d="M78.9,33.5c0,0,21.1,5.8,22.8,5.9c1.7,0.1,2-0.8,2.4-1.6
			s1.7-2.5,1.7-2.5c-0.4-0.6-0.7-1.1-1.3-1.1c-0.6,0.1-37.6-10-37.6-10l8.6,7.1L78.9,33.5z"/>
		<path fill="#2B4F7A" stroke="#FFFFFF" stroke-miterlimit="10" d="M78.4,27.4c-1-0.6-18.6-5.4-20-5.5c-1.5-0.1-4.2-0.8-5,0.2
			c-0.9,1-1.4,1.2-1.2,2c0.5,3.8,4.2,8.2,4.4,8.5s8.3,5,8.3,5H71c0,0,6.5-3.5,7.3-4.2s2.3-1.2,2-3.2C80,28.8,78.4,27.4,78.4,27.4z"
			/>
		<path fill="#2B4F7A" stroke="#FFFFFF" stroke-miterlimit="10" d="M56.5,31.7c0.8-0.8,3.1-2.8,4.4-3.9c1.6-1.3,4.9-3,7.2-1.9
			c2.3,1.1,2.5,3.6,3,5.1c0.5,1.5,1.5,3.8,1.6,5c0.1,1.2-7.5-3.5-7.5-3.5L56.7,33L56.5,31.7z"/>
		<path fill="#2B4F7A" stroke="#FFFFFF" stroke-miterlimit="10" d="M65.1,31.2c4.4,1,7.6,3.5,7.2,5.7c-0.1,0.5-0.1,1.5-0.4,2.4
			c-0.6,1.8-5.2,0.4-8.5-0.3c-2.8-0.6-6.3-1.9-7.5-3.2c0.2-1.6,0.2-1.6,0.4-2.4C56.7,31.2,60.7,30.3,65.1,31.2z"/>
		
			<ellipse transform="matrix(-0.9769 -0.2138 0.2138 -0.9769 118.2752 87.9882)" fill="#2B4F7A" stroke="#FFFFFF" stroke-miterlimit="10" cx="63.9" cy="37.6" rx="8.2" ry="4"/>
	</g>
</g>
</svg>
