<?xml version="1.0" encoding="utf-8"?>
<!-- Generator: Adobe Illustrator 18.0.0, SVG Export Plug-In . SVG Version: 6.00 Build 0)  -->
<!DOCTYPE svg PUBLIC "-//W3C//DTD SVG 1.1//EN" "http://www.w3.org/Graphics/SVG/1.1/DTD/svg11.dtd">
<svg version="1.1" id="Layer_1" xmlns="http://www.w3.org/2000/svg" xmlns:xlink="http://www.w3.org/1999/xlink" x="0px" y="0px"
	 viewBox="-2 0 70 110" enable-background="new -2 0 70 110" xml:space="preserve">
<g>
	<circle fill="#FFFFFF" stroke="#7E9B3D" stroke-width="3" stroke-miterlimit="10" cx="33" cy="32.1" r="23.1"/>
	<line fill="none" stroke="#E79D2D" stroke-width="3" stroke-miterlimit="10" x1="10" y1="65.8" x2="55.3" y2="65.8"/>
	<g enable-background="new    ">
		<path fill="#2B4F7A" d="M30.5,73.8l-0.3,1.3l-0.2,0c-1.1-0.7-1.9-1-3-1c-2.4,0-3.7,1.4-3.7,4.6c0,2.9,1.1,4.2,3.5,4.2
			c0.6,0,1.2-0.1,2.2-0.4l0-1.3l0-1.5l1.3-0.1l0,1.5l0.1,2.4c-1.5,0.5-2.5,0.6-3.6,0.6c-3.3,0-4.9-2-4.9-5.4C22,75,24,73,27.3,73
			C28.4,73,29.5,73.3,30.5,73.8z"/>
		<path fill="#2B4F7A" d="M33.2,80.1c0,1.8,0.8,3,2.3,3c0.7,0,1.6-0.3,2.3-0.8l0.2,0.1l-0.1,1.1c-0.7,0.4-1.6,0.6-2.4,0.6
			c-2.2,0-3.5-1.5-3.5-4c0-2.5,1.4-4.1,3.7-4.1c1.7,0,2.7,1.1,2.7,2.9c0,0.2,0,0.6,0,0.8L38,80L33.2,80.1L33.2,80.1z M33.3,79.2
			l3.7-0.1l0-0.2c0-1.2-0.7-1.8-1.6-1.8C34.3,77.1,33.5,77.8,33.3,79.2z"/>
		<path fill="#2B4F7A" d="M44,82.6l0.2,0.1L44,83.6c-0.6,0.3-1.1,0.4-1.7,0.5c-1.3-0.3-1.8-0.9-1.8-2.2l0.1-1.2l0-3.5h-1.1L39.3,77
			l0.1-0.8h1V75l1.2-0.5l0.1,0.1l0,1.6h2.3l0.1,0.1L44,77.1h-2.3l-0.1,4.6c0,0.9,0.3,1.2,1.1,1.2C43.1,83,43.5,82.9,44,82.6z"/>
	</g>
	<g enable-background="new    ">
		<path fill="#2B4F7A" d="M23.7,89.2l-0.1,1.1l-0.1,0.1C23,90.1,22.7,90,22.3,90c-0.9,0-1.4,0.5-1.4,1.6l0,1.6h2l0.1,0.1l-0.1,0.8
			h-2l0,3.5l0.1,3.4h-1.3l0.1-3.3l0-3.6h-1.2L18.4,94l0.1-0.8h1.2l0-1.4c0-1.8,1-2.8,2.8-2.8C22.8,89,23.3,89.1,23.7,89.2z"/>
		<path fill="#2B4F7A" d="M29.1,95.1c0,0.6-0.2,3.6-0.2,4.2c0,0.5,0.1,0.7,0.5,0.7c0.1,0,0.3,0,0.6-0.1l0.1,0.1l-0.1,0.8
			c-0.3,0.2-0.6,0.3-1,0.3c-0.7-0.1-1.1-0.5-1.2-1.3h-0.1c-0.6,0.6-1.2,1-1.8,1.3c-1.5,0-2.4-0.8-2.4-2.1c0-1,0.6-1.6,1.6-1.8
			l2.8-0.6l0-1.1c0-0.9-0.5-1.4-1.3-1.4c-0.8,0-1.5,0.4-2.4,1.1l-0.1-0.1l-0.2-1c0.9-0.7,1.9-1.1,2.9-1.1
			C28.1,93.1,29.1,93.9,29.1,95.1z M25.3,98c-0.4,0.1-0.6,0.3-0.6,0.8c0,0.7,0.5,1.2,1.2,1.2c0.7,0,1.3-0.4,1.9-1.2l0.1-1.4L25.3,98
			z"/>
		<path fill="#2B4F7A" d="M36.9,93.6l-0.2,1.2l-0.2,0.1c-0.5-0.3-1.1-0.6-1.8-0.6c-1.3,0-2.1,1.1-2.1,2.9c0,1.8,0.8,3,2.2,3
			c0.6,0,1.3-0.2,1.9-0.6l0.2,0.1l-0.2,1.1c-0.6,0.3-1.4,0.4-2.1,0.4c-2.1,0-3.3-1.5-3.3-4c0-2.5,1.3-4.1,3.5-4.1
			C35.5,93.1,36.3,93.3,36.9,93.6z"/>
		<path fill="#2B4F7A" d="M42.2,99.6l0.2,0.1l-0.1,0.9c-0.6,0.3-1.1,0.4-1.7,0.5c-1.3-0.3-1.8-0.9-1.8-2.2l0.1-1.2l0-3.5h-1.1
			L37.6,94l0.1-0.8h1V92l1.2-0.5l0.1,0.1l0,1.6h2.3l0.1,0.1l-0.1,0.8H40l-0.1,4.6c0,0.9,0.3,1.2,1.1,1.2
			C41.3,100,41.7,99.9,42.2,99.6z"/>
		<path fill="#2B4F7A" d="M47.9,93.5l-0.2,1.1l-0.2,0.1c-0.6-0.4-1.1-0.6-1.6-0.6c-0.8,0-1.3,0.5-1.3,1.1c0,1.6,3.5,1.2,3.5,3.6
			c0,1.2-1,2.4-2.8,2.4c-0.7,0-1.5-0.2-2.3-0.6l0.2-1.2l0.2-0.1c0.6,0.6,1.4,0.8,2.1,0.8c0.9,0,1.4-0.6,1.4-1.2
			c0-1.6-3.6-1.2-3.6-3.7c0-1.3,1-2.2,2.7-2.2C46.7,93.1,47.3,93.2,47.9,93.5z"/>
	</g>
	<g>
		<path fill="#2B4F7A" d="M27.1,46.4v-2.2c3.5-0.5,3.8-0.8,3.8-3.3v-8c0-2.5-0.2-2.6-3.3-3v-2.1c2.5-0.3,6.6-1.1,8.9-1.7h0.2v14.8
			c0,2.6,0.2,2.8,3.7,3.3v2.2H27.1z M33.3,14.4c2.2,0,3.9,1.8,3.9,4s-1.7,3.8-4,3.8c-2.1,0-4-1.6-4-3.8S31.1,14.4,33.3,14.4
			L33.3,14.4z"/>
	</g>
</g>
</svg>
