<?xml version="1.0" encoding="utf-8"?>
<!-- Generator: Adobe Illustrator 18.0.0, SVG Export Plug-In . SVG Version: 6.00 Build 0)  -->
<!DOCTYPE svg PUBLIC "-//W3C//DTD SVG 1.1//EN" "http://www.w3.org/Graphics/SVG/1.1/DTD/svg11.dtd">
<svg version="1.1" id="Layer_1" xmlns="http://www.w3.org/2000/svg" xmlns:xlink="http://www.w3.org/1999/xlink" x="0px" y="0px"
	 viewBox="-2 0 70 110" enable-background="new -2 0 70 110" xml:space="preserve">
<g>
	<circle fill="#FFFFFF" stroke="#7E9B3D" stroke-width="3" stroke-miterlimit="10" cx="33" cy="32.1" r="23.1"/>
	<line fill="none" stroke="#E79D2D" stroke-width="3" stroke-miterlimit="10" x1="9.4" y1="65.8" x2="54.7" y2="65.8"/>
	<g enable-background="new    ">
		<path fill="#2B4F7A" d="M16.5,84h-1.4l0.1-3.3l-0.1-7.6h1.4l-0.1,7.5L16.5,84z M18.1,78.2c1.4,1.9,3.1,3.8,4.7,5.5l0,0.2
			c-0.4,0.1-0.9,0.2-1.3,0.3l-0.2-0.1c-1.6-1.9-3.2-3.8-4.7-5.8v-0.1l3.6-4.1l0.7-1h1.5L18.1,78.2z"/>
		<path fill="#2B4F7A" d="M29.1,78.7c0-0.9-0.4-1.5-1.3-1.5c-0.8,0-1.5,0.4-2.3,1.2l0,2.1l0.1,3.4h-1.3l0.1-3.3l-0.1-4.4l1.3-0.1
			l0,1.1h0.1c0.7-0.6,1.5-1,2.2-1.2c1.7,0,2.6,0.8,2.6,2.3l0,2.2l0.1,3.4h-1.4L29.1,78.7z"/>
		<path fill="#2B4F7A" d="M39.2,80c0,2.6-1.3,4.1-3.5,4.1c-2.1,0-3.3-1.4-3.3-3.9c0-2.6,1.3-4.1,3.6-4.1C38,76.1,39.2,77.5,39.2,80z
			 M33.6,79.9c0,2.2,0.8,3.3,2.2,3.3c1.4,0,2.2-1,2.2-2.9c0-2.2-0.8-3.3-2.2-3.3C34.4,77,33.6,78,33.6,79.9z"/>
		<path fill="#2B4F7A" d="M42.9,82.6L42.9,82.6l1.7-5.3l0.3-1h1.3l0.2,1l1.4,5.4H48l1.7-5.3l0.2-1H51L48.5,84h-1.3l-1.6-6h-0.1
			l-1.9,6h-1.3l-2.2-7.8l1.2-0.1l0.2,1L42.9,82.6z"/>
	</g>
	<g enable-background="new    ">
		<path fill="#2B4F7A" d="M8.8,99.5h0.1l1.9-5.2l0.3-1.1h1.2l-2.8,7.5c-0.7,2-1.8,3-3.9,3.5H5.5c-0.3-0.3-0.5-0.5-0.6-0.9l0-0.2
			c1.7-0.3,2.6-0.9,3.4-2.2l-2.9-7.8l1.3-0.1l0.3,1L8.8,99.5z"/>
		<path fill="#2B4F7A" d="M19.8,97c0,2.6-1.3,4.1-3.5,4.1c-2.1,0-3.3-1.4-3.3-3.9c0-2.6,1.3-4.1,3.6-4.1
			C18.6,93.1,19.8,94.5,19.8,97z M14.2,96.9c0,2.2,0.8,3.3,2.2,3.3c1.4,0,2.2-1,2.2-2.9c0-2.2-0.8-3.3-2.2-3.3
			C15,94,14.2,95,14.2,96.9z"/>
		<path fill="#2B4F7A" d="M27.7,99.3c0,0.5,0.2,0.6,0.5,0.6c0.2,0,0.3,0,0.6-0.1l0.1,0.1l-0.1,0.8c-0.3,0.2-0.6,0.3-1,0.3
			c-0.7-0.1-1.1-0.5-1.2-1.2h-0.1c-0.7,0.6-1.4,1-2.1,1.2c-1.7,0-2.6-0.8-2.5-2.3l0-2.2l-0.1-3.3l1.4-0.1l-0.1,5.3
			c0,0.9,0.4,1.5,1.3,1.5c0.7,0,1.4-0.4,2.1-1v-5.6l1.3-0.1L27.7,99.3z"/>
		<path fill="#2B4F7A" d="M34.6,93.2v1.3l-0.2,0.1c-0.2-0.1-0.5-0.1-0.6-0.1c-0.7,0-1.4,0.5-2,1.9l0,1.2l0.1,3.4h-1.3l0.1-3.3
			l-0.1-4.4l1.3-0.1l0,1.6H32c0.7-1.2,1.5-1.6,2.2-1.6C34.3,93.2,34.5,93.2,34.6,93.2z"/>
		<path fill="#2B4F7A" d="M42.9,93.2v1.3l-0.2,0.1c-0.2-0.1-0.5-0.1-0.6-0.1c-0.7,0-1.4,0.5-2,1.9l0,1.2l0.1,3.4h-1.3l0.1-3.3
			l-0.1-4.4l1.3-0.1l0,1.6h0.1c0.7-1.2,1.5-1.6,2.2-1.6C42.6,93.2,42.8,93.2,42.9,93.2z"/>
		<path fill="#2B4F7A" d="M45.9,90.5c0,0.5-0.3,0.8-0.8,0.8c-0.5,0-0.7-0.3-0.7-0.8c0-0.5,0.3-0.8,0.8-0.8
			C45.6,89.7,45.9,90,45.9,90.5z M45.7,101h-1.3l0.1-3.3l-0.1-4.4l1.3-0.1l-0.1,4.4L45.7,101z"/>
		<path fill="#2B4F7A" d="M52.4,93.5l-0.2,1.1L52,94.6c-0.6-0.4-1.1-0.6-1.6-0.6c-0.8,0-1.3,0.5-1.3,1.1c0,1.6,3.5,1.2,3.5,3.6
			c0,1.2-1,2.4-2.8,2.4c-0.7,0-1.5-0.2-2.3-0.6l0.2-1.2l0.2-0.1c0.6,0.6,1.4,0.8,2.1,0.8c0.9,0,1.4-0.6,1.4-1.2
			c0-1.6-3.6-1.2-3.6-3.7c0-1.3,1-2.2,2.7-2.2C51.2,93.1,51.8,93.2,52.4,93.5z"/>
		<path fill="#2B4F7A" d="M56.1,101h-1.3l0.1-3.3l-0.1-8.5l1.3-0.1l-0.1,8.5L56.1,101z M57.7,96.8c1,1.4,2.2,2.7,3.3,4v0.2
			c-0.4,0.1-0.8,0.2-1.2,0.2l-0.2-0.1c-1.1-1.3-2.2-2.7-3.2-4.2v-0.1l2.4-2.9l0.5-0.7h1.5L57.7,96.8z"/>
	</g>
	<g>
		<path fill="#2B4F7A" d="M33.4,48c-2,0-3.5-1.5-3.5-3.8c0-2.1,1.5-3.7,3.6-3.7s3.6,1.6,3.6,3.7C37.1,46.5,35.6,48,33.4,48L33.4,48z
			 M34.4,16c1.8,0,2.6,0.4,2.6,1.3c0,0.7-0.1,1.7-0.4,3.6c-0.7,5.1-1,10.2-1.5,15.9c-0.3,0.3-3.3,0.3-3.6,0C31,31.1,30.7,26,30,20.9
			c-0.1-1.9-0.3-2.9-0.3-3.6c0-0.9,0.7-1.3,2.5-1.3C32.2,16,34.4,16,34.4,16z"/>
	</g>
</g>
</svg>
