<?xml version="1.0" encoding="utf-8"?>
<!-- Generator: Adobe Illustrator 18.0.0, SVG Export Plug-In . SVG Version: 6.00 Build 0)  -->
<!DOCTYPE svg PUBLIC "-//W3C//DTD SVG 1.1//EN" "http://www.w3.org/Graphics/SVG/1.1/DTD/svg11.dtd">
<svg version="1.1" id="Layer_1" xmlns="http://www.w3.org/2000/svg" xmlns:xlink="http://www.w3.org/1999/xlink" x="0px" y="0px"
	 viewBox="-2 0 70 110" enable-background="new -2 0 70 110" xml:space="preserve">
<g>
	<circle fill="#FFFFFF" stroke="#7E9B3D" stroke-width="3" stroke-miterlimit="10" cx="33" cy="32.1" r="23.1"/>
	<line fill="none" stroke="#E79D2D" stroke-width="3" stroke-miterlimit="10" x1="10.3" y1="65.8" x2="55.7" y2="65.8"/>
	<g enable-background="new    ">
		<path fill="#2B4F7A" d="M28.9,86.4c-0.2,0.4-0.4,0.6-0.6,0.9l-0.1,0.1c-2.2-0.6-4.3-1.6-6-3.1l-0.4,0c-3,0-4.7-2-4.7-5.5
			c0-3.6,1.8-5.6,4.9-5.6c3,0,4.6,1.9,4.6,5.4c0,2.9-1.2,4.9-3.2,5.5c1.6,1.1,3.4,1.9,5.5,2.3L28.9,86.4z M21.9,83
			c2.2,0,3.4-1.5,3.4-4.5c0-3-1.1-4.4-3.3-4.4c-2.3,0-3.4,1.4-3.4,4.4C18.5,81.5,19.6,83,21.9,83z"/>
		<path fill="#2B4F7A" d="M34.5,82.3c0,0.5,0.2,0.6,0.5,0.6c0.2,0,0.3,0,0.6-0.1l0.1,0.1l-0.1,0.8c-0.3,0.2-0.6,0.3-1,0.3
			c-0.7-0.1-1.1-0.5-1.2-1.2h-0.1c-0.7,0.6-1.4,1-2.1,1.2c-1.7,0-2.6-0.8-2.5-2.3l0-2.2l-0.1-3.3l1.4-0.1l-0.1,5.3
			c0,0.9,0.4,1.5,1.3,1.5c0.7,0,1.4-0.4,2.1-1v-5.6l1.3-0.1L34.5,82.3z"/>
		<path fill="#2B4F7A" d="M38.9,73.5c0,0.5-0.3,0.8-0.8,0.8c-0.5,0-0.7-0.3-0.7-0.8c0-0.5,0.3-0.8,0.8-0.8
			C38.6,72.7,38.9,73,38.9,73.5z M38.7,84h-1.3l0.1-3.3l-0.1-4.4l1.3-0.1l-0.1,4.4L38.7,84z"/>
		<path fill="#2B4F7A" d="M45.8,76.2l0.6,0l0,0.8l-4.4,6h3.1l1.3-0.1l0.1,0.1l-0.1,1l-1.6,0h-3.4l-0.8,0v-0.8l4.4-6.1h-2.9l-1.2,0.1
			l-0.1-0.1l0.1-1l1.4,0H45.8z"/>
	</g>
	<g enable-background="new    ">
		<path fill="#2B4F7A" d="M32,95.7c0-0.9-0.4-1.5-1.3-1.5c-0.8,0-1.5,0.4-2.3,1.2l0,2.2l0.1,3.4h-1.4l0.1-5.3c0-0.9-0.4-1.5-1.3-1.5
			c-0.8,0-1.5,0.5-2.3,1.2l0,2.1l0.1,3.4h-1.3l0.1-3.3l-0.1-4.4l1.3-0.1l0,1.1h0.1c0.7-0.6,1.5-1,2.1-1.2c1.3,0,2.1,0.5,2.4,1.3h0.1
			c0.7-0.7,1.6-1.1,2.3-1.3c1.7,0,2.6,0.8,2.6,2.3l0,2.2l0.1,3.4h-1.4L32,95.7z"/>
		<path fill="#2B4F7A" d="M36.4,97.1c0,1.8,0.8,3,2.3,3c0.7,0,1.6-0.3,2.3-0.8l0.2,0.1l-0.1,1.1c-0.7,0.4-1.6,0.6-2.4,0.6
			c-2.2,0-3.5-1.5-3.5-4c0-2.5,1.4-4.1,3.7-4.1c1.7,0,2.7,1.1,2.7,2.9c0,0.2,0,0.6,0,0.8L41.1,97L36.4,97.1L36.4,97.1z M36.5,96.2
			l3.7-0.1l0-0.2c0-1.2-0.7-1.8-1.6-1.8C37.5,94.1,36.7,94.8,36.5,96.2z"/>
	</g>
	<g>
		<path fill="#2B4F7A" d="M33.5,37.5c-1.9-0.9-4.9-3-4.9-5.8c0-1.7,1.2-3,4-4.7c2.7-1.6,4.9-2.9,4.9-4.9c0-1.6-1-2.5-2.6-2.5
			c-3.2,0-5.1,3.5-6.2,3.5c-1.2,0-2.5-1.3-2.5-2.4c0-0.7,0.2-1.3,1.2-2c1.6-1.3,3.7-2,5.4-2h0.1c3.9,0,7.9,3.4,7.9,7.5
			c0,2-0.7,3.6-4.2,5.6c-2.4,1.4-3.4,2.3-3.4,3.5c0,1.1,0.5,2,1.5,3.1L33.5,37.5z M32.7,47c-1.8,0-3.2-1.3-3.2-3.3
			c0-1.9,1.4-3.4,3.2-3.4c1.8,0,3.2,1.5,3.2,3.4C36,45.7,34.7,47,32.7,47L32.7,47z"/>
	</g>
</g>
</svg>
