<?xml version="1.0" encoding="utf-8"?>
<!-- Generator: Adobe Illustrator 18.0.0, SVG Export Plug-In . SVG Version: 6.00 Build 0)  -->
<!DOCTYPE svg PUBLIC "-//W3C//DTD SVG 1.1//EN" "http://www.w3.org/Graphics/SVG/1.1/DTD/svg11.dtd">
<svg version="1.1" id="Layer_1" xmlns="http://www.w3.org/2000/svg" xmlns:xlink="http://www.w3.org/1999/xlink" x="0px" y="0px"
	 viewBox="-2 0 70 110" enable-background="new -2 0 70 110" xml:space="preserve">
<g>
	<circle fill="#FFFFFF" stroke="#7E9B3D" stroke-width="3" stroke-miterlimit="10" cx="32.4" cy="32.7" r="23.1"/>
	<line fill="none" stroke="#E79D2D" stroke-width="3" stroke-miterlimit="10" x1="8.8" y1="67.8" x2="54.2" y2="67.8"/>
	<g enable-background="new    ">
		<path fill="#2B4F7A" d="M6,77.7L5.7,79l-0.2,0.1c-0.7-0.5-1.4-0.8-2.1-0.8c-1.3,0-2.1,0.9-2.1,1.8c0,2.2,5,2,5,5.1
			c0,1.7-1.5,3.1-3.7,3.1c-0.9,0-2-0.3-2.9-0.8l0.2-1.4L0.1,86c0.8,0.8,1.9,1.1,2.7,1.1c1.4,0,2.2-0.9,2.2-1.8c0-2.3-5-2-5-5.1
			c0-1.7,1.4-3,3.6-3C4.2,77.2,5.1,77.3,6,77.7z"/>
		<path fill="#2B4F7A" d="M14.1,86.5c0,0.5,0.2,0.6,0.5,0.6c0.2,0,0.3,0,0.6-0.1l0.1,0.1l-0.1,0.8c-0.3,0.2-0.6,0.3-1,0.3
			c-0.7-0.1-1.1-0.5-1.2-1.2H13c-0.7,0.6-1.4,1-2.1,1.2c-1.7,0-2.6-0.8-2.5-2.3l0-2.2l-0.1-3.3l1.4-0.1l-0.1,5.3
			c0,0.9,0.4,1.5,1.3,1.5c0.7,0,1.4-0.4,2.1-1v-5.6l1.3-0.1L14.1,86.5z"/>
		<path fill="#2B4F7A" d="M22,82.9c0-0.9-0.4-1.5-1.3-1.5c-0.8,0-1.5,0.4-2.3,1.2l0,2.1l0.1,3.4h-1.3l0.1-3.3l-0.1-4.4l1.3-0.1
			l0,1.1h0.1c0.7-0.6,1.5-1,2.2-1.2c1.7,0,2.6,0.8,2.6,2.3l0,2.2l0.1,3.4h-1.4L22,82.9z"/>
		<path fill="#2B4F7A" d="M29.8,80.6l-0.2,1.1l-0.2,0.1c-0.6-0.4-1.1-0.6-1.6-0.6c-0.8,0-1.3,0.5-1.3,1.1c0,1.6,3.5,1.2,3.5,3.6
			c0,1.2-1,2.4-2.8,2.4c-0.7,0-1.5-0.2-2.3-0.6l0.2-1.2l0.2-0.1c0.6,0.6,1.4,0.8,2.1,0.8c0.9,0,1.4-0.6,1.4-1.2
			c0-1.6-3.6-1.2-3.6-3.7c0-1.3,1-2.2,2.7-2.2C28.5,80.2,29.2,80.4,29.8,80.6z"/>
		<path fill="#2B4F7A" d="M37,80.7l-0.2,1.2l-0.2,0.1c-0.5-0.3-1.1-0.6-1.8-0.6c-1.3,0-2.1,1.1-2.1,2.9c0,1.8,0.8,3,2.2,3
			c0.6,0,1.3-0.2,1.9-0.6l0.2,0.1l-0.2,1.1c-0.6,0.3-1.4,0.4-2.1,0.4c-2.1,0-3.3-1.5-3.3-4c0-2.5,1.3-4.1,3.5-4.1
			C35.6,80.2,36.5,80.4,37,80.7z"/>
		<path fill="#2B4F7A" d="M42.7,80.4v1.3l-0.2,0.1c-0.2-0.1-0.5-0.1-0.6-0.1c-0.7,0-1.4,0.5-2,1.9l0,1.2l0.1,3.4h-1.3l0.1-3.3
			l-0.1-4.4l1.3-0.1l0,1.6H40c0.7-1.2,1.5-1.6,2.2-1.6C42.4,80.3,42.5,80.4,42.7,80.4z"/>
		<path fill="#2B4F7A" d="M44.6,84.2c0,1.8,0.8,3,2.3,3c0.7,0,1.6-0.3,2.3-0.8l0.2,0.1l-0.1,1.1c-0.7,0.4-1.6,0.6-2.4,0.6
			c-2.2,0-3.5-1.5-3.5-4c0-2.5,1.4-4.1,3.7-4.1c1.7,0,2.7,1.1,2.7,2.9c0,0.2,0,0.6,0,0.8l-0.3,0.2L44.6,84.2L44.6,84.2z M44.7,83.3
			l3.7-0.1l0-0.2c0-1.2-0.7-1.8-1.6-1.8C45.7,81.2,45,81.9,44.7,83.3z"/>
		<path fill="#2B4F7A" d="M52.3,84.2c0,1.8,0.8,3,2.3,3c0.7,0,1.6-0.3,2.3-0.8l0.2,0.1L57,87.7c-0.7,0.4-1.6,0.6-2.4,0.6
			c-2.2,0-3.5-1.5-3.5-4c0-2.5,1.4-4.1,3.7-4.1c1.7,0,2.7,1.1,2.7,2.9c0,0.2,0,0.6,0,0.8l-0.3,0.2L52.3,84.2L52.3,84.2z M52.4,83.3
			l3.7-0.1l0-0.2c0-1.2-0.7-1.8-1.6-1.8C53.4,81.2,52.7,81.9,52.4,83.3z"/>
		<path fill="#2B4F7A" d="M64.3,82.9c0-0.9-0.4-1.5-1.3-1.5c-0.8,0-1.5,0.4-2.3,1.2l0,2.1l0.1,3.4h-1.3l0.1-3.3l-0.1-4.4l1.3-0.1
			l0,1.1h0.1c0.7-0.6,1.5-1,2.2-1.2c1.7,0,2.6,0.8,2.6,2.3l0,2.2l0.1,3.4h-1.4L64.3,82.9z"/>
	</g>
	<g enable-background="new    ">
		<path fill="#2B4F7A" d="M24.9,103.8l0.2,0.1l-0.1,0.9c-0.6,0.3-1.1,0.4-1.7,0.5c-1.3-0.3-1.8-0.9-1.8-2.2l0.1-1.2l0-3.5h-1.1
			l-0.1-0.1l0.1-0.8h1v-1.3l1.2-0.5l0.1,0.1l0,1.6H25l0.1,0.1L25,98.3h-2.3l-0.1,4.6c0,0.9,0.3,1.2,1.1,1.2
			C24.1,104.1,24.4,104,24.9,103.8z"/>
		<path fill="#2B4F7A" d="M28.1,94.6c0,0.5-0.3,0.8-0.8,0.8c-0.5,0-0.7-0.3-0.7-0.8c0-0.5,0.3-0.8,0.8-0.8
			C27.9,93.9,28.1,94.2,28.1,94.6z M28,105.1h-1.3l0.1-3.3l-0.1-4.4l1.3-0.1l-0.1,4.4L28,105.1z"/>
		<path fill="#2B4F7A" d="M37.3,101c0,2.7-1.4,4.3-3.8,4.3c-0.5,0-1-0.1-1.5-0.2l0,3.2h-1.3l0.1-6.4l-0.1-4.4l1.3-0.1l0,1.1h0.1
			c0.8-0.6,1.3-1,2.1-1.2C36.2,97.3,37.3,98.7,37.3,101z M36,101.2c0-1.8-0.7-2.8-1.9-2.8c-0.7,0-1.4,0.4-2.1,1.2l0,2.1l0,2.1
			c0.6,0.3,1.1,0.4,1.7,0.4C35.1,104.3,36,103.3,36,101.2z"/>
		<path fill="#2B4F7A" d="M43.3,97.6l-0.2,1.1l-0.2,0.1c-0.6-0.4-1.1-0.6-1.6-0.6c-0.8,0-1.3,0.5-1.3,1.1c0,1.6,3.5,1.2,3.5,3.6
			c0,1.2-1,2.4-2.8,2.4c-0.7,0-1.5-0.2-2.3-0.6l0.2-1.2l0.2-0.1c0.6,0.6,1.4,0.8,2.1,0.8c0.9,0,1.4-0.6,1.4-1.2
			c0-1.6-3.6-1.2-3.6-3.7c0-1.3,1-2.2,2.7-2.2C42,97.2,42.7,97.4,43.3,97.6z"/>
	</g>
	<path fill="#FFFFFF" stroke="#2B4F7A" stroke-width="2.5" stroke-linejoin="round" stroke-miterlimit="10" d="M34.2,44.4
		c-0.9,1.9-3.5,4.7-3.3,8.4c0.3,5.3,5,7,8.9,5.9c4.4-1.2,5.8-6.7,4.6-10.8s-6.5-9.1-11.5-12.5C34.1,37.6,35.8,41,34.2,44.4z"/>
	<g>
		<polygon fill="#2B4F7A" points="34.8,24.7 25.2,1 5.9,12.7 22.5,32.4 25.4,30.1 28.3,33.2 32.9,30.5 31.6,26.6 		"/>
	</g>
</g>
</svg>
