<?xml version="1.0" encoding="utf-8"?>
<!-- Generator: Adobe Illustrator 18.0.0, SVG Export Plug-In . SVG Version: 6.00 Build 0)  -->
<!DOCTYPE svg PUBLIC "-//W3C//DTD SVG 1.1//EN" "http://www.w3.org/Graphics/SVG/1.1/DTD/svg11.dtd">
<svg version="1.1" id="Layer_1" xmlns="http://www.w3.org/2000/svg" xmlns:xlink="http://www.w3.org/1999/xlink" x="0px" y="0px"
	 viewBox="-2 0 70 110" enable-background="new -2 0 70 110" xml:space="preserve">
<g>
	<circle fill="#FFFFFF" stroke="#7E9B3D" stroke-width="3" stroke-miterlimit="10" cx="32.5" cy="32.1" r="23.1"/>
	<line fill="none" stroke="#E79D2D" stroke-width="3" stroke-miterlimit="10" x1="8.7" y1="65.8" x2="54.1" y2="65.8"/>
	<g enable-background="new    ">
		<path fill="#2B4F7A" d="M20.7,84L17,73.1h1.4l0.3,1.1l2.8,8.4h0.1l3.1-8.3l0.3-1.2h1.4l-4,10.9H20.7z"/>
		<path fill="#2B4F7A" d="M29.2,73.5c0,0.5-0.3,0.8-0.8,0.8c-0.5,0-0.7-0.3-0.7-0.8c0-0.5,0.3-0.8,0.8-0.8
			C28.9,72.7,29.2,73,29.2,73.5z M29,84h-1.3l0.1-3.3l-0.1-4.4l1.3-0.1L29,80.6L29,84z"/>
		<path fill="#2B4F7A" d="M32.4,80.1c0,1.8,0.8,3,2.3,3c0.7,0,1.6-0.3,2.3-0.8l0.2,0.1L37,83.5c-0.7,0.4-1.6,0.6-2.4,0.6
			c-2.2,0-3.5-1.5-3.5-4c0-2.5,1.4-4.1,3.7-4.1c1.7,0,2.7,1.1,2.7,2.9c0,0.2,0,0.6,0,0.8L37.1,80L32.4,80.1L32.4,80.1z M32.5,79.2
			l3.7-0.1l0-0.2c0-1.2-0.7-1.8-1.6-1.8C33.5,77.1,32.7,77.8,32.5,79.2z"/>
		<path fill="#2B4F7A" d="M41.3,82.6L41.3,82.6l1.7-5.3l0.3-1h1.3l0.2,1l1.4,5.4h0.1l1.7-5.3l0.2-1h1.2L46.8,84h-1.3l-1.6-6h-0.1
			l-1.9,6h-1.3l-2.2-7.8l1.2-0.1l0.2,1L41.3,82.6z"/>
	</g>
	<g enable-background="new    ">
		<path fill="#2B4F7A" d="M12.5,90.5c0,0.5-0.3,0.8-0.8,0.8c-0.5,0-0.7-0.3-0.7-0.8c0-0.5,0.3-0.8,0.8-0.8
			C12.2,89.7,12.5,90,12.5,90.5z M12.3,101H11l0.1-3.3L11,93.3l1.3-0.1l-0.1,4.4L12.3,101z"/>
		<path fill="#2B4F7A" d="M24.8,95.7c0-0.9-0.4-1.5-1.3-1.5c-0.8,0-1.5,0.4-2.3,1.2l0,2.2l0.1,3.4h-1.4l0.1-5.3
			c0-0.9-0.4-1.5-1.3-1.5c-0.8,0-1.5,0.5-2.3,1.2l0,2.1l0.1,3.4h-1.3l0.1-3.3l-0.1-4.4l1.3-0.1l0,1.1h0.1c0.7-0.6,1.5-1,2.1-1.2
			c1.3,0,2.1,0.5,2.4,1.3h0.1c0.7-0.7,1.6-1.1,2.3-1.3c1.7,0,2.6,0.8,2.6,2.3l0,2.2l0.1,3.4h-1.4L24.8,95.7z"/>
		<path fill="#2B4F7A" d="M33.5,95.1c0,0.6-0.2,3.6-0.2,4.2c0,0.5,0.1,0.7,0.5,0.7c0.1,0,0.3,0,0.6-0.1l0.1,0.1l-0.1,0.8
			c-0.3,0.2-0.6,0.3-1,0.3c-0.7-0.1-1.1-0.5-1.2-1.3h-0.1c-0.6,0.6-1.2,1-1.8,1.3c-1.5,0-2.4-0.8-2.4-2.1c0-1,0.6-1.6,1.6-1.8
			l2.8-0.6l0-1.1c0-0.9-0.5-1.4-1.3-1.4c-0.8,0-1.5,0.4-2.4,1.1l-0.1-0.1l-0.2-1c0.9-0.7,1.9-1.1,2.9-1.1
			C32.6,93.1,33.5,93.9,33.5,95.1z M29.8,98c-0.4,0.1-0.6,0.3-0.6,0.8c0,0.7,0.5,1.2,1.2,1.2c0.7,0,1.3-0.4,1.9-1.2l0.1-1.4L29.8,98
			z"/>
		<path fill="#2B4F7A" d="M43.3,93.9c-0.5,0.2-1,0.3-1.6,0.4l0,0.1c0.3,0.4,0.4,0.9,0.4,1.4c0,1.6-1.2,2.7-3.1,2.7
			c-0.4,0-0.7-0.1-1.1-0.1c-0.4,0.3-0.5,0.4-0.5,0.7c0,1.3,5,0.2,5,2.7c0,1.4-1.6,2.6-3.7,2.6c-1.9,0-2.9-1-2.9-2.2
			c0.3-0.6,0.8-1.1,1.5-1.5v-0.1c-0.7-0.2-1.3-0.6-1.3-1.4c0.2-0.4,0.6-0.7,1-1V98c-0.7-0.4-1.1-1.2-1.1-2.2c0-1.7,1.2-2.7,3-2.7
			c0.6,0,1.1,0.1,1.5,0.3c0.8-0.2,1.7-0.4,2.5-0.6l0.1,0.1V93.9z M38.5,100.7c-0.8,0.5-1.3,1-1.3,1.5c0,0.6,0.6,1.1,1.8,1.1
			c1.3,0,2.3-0.6,2.3-1.4C41.4,101,39.9,100.9,38.5,100.7z M40.9,95.7c0-1.1-0.6-1.7-1.7-1.7c-1.1,0-1.8,0.6-1.8,1.8
			c0,1.1,0.6,1.7,1.7,1.7C40.3,97.5,40.9,96.9,40.9,95.7z"/>
		<path fill="#2B4F7A" d="M45.3,97.1c0,1.8,0.8,3,2.3,3c0.7,0,1.6-0.3,2.3-0.8l0.2,0.1l-0.1,1.1c-0.7,0.4-1.6,0.6-2.4,0.6
			c-2.2,0-3.5-1.5-3.5-4c0-2.5,1.4-4.1,3.7-4.1c1.7,0,2.7,1.1,2.7,2.9c0,0.2,0,0.6,0,0.8L50.1,97L45.3,97.1L45.3,97.1z M45.4,96.2
			l3.7-0.1l0-0.2c0-1.2-0.7-1.8-1.6-1.8C46.5,94.1,45.7,94.8,45.4,96.2z"/>
		<path fill="#2B4F7A" d="M56.4,93.5l-0.2,1.1L56,94.6c-0.6-0.4-1.1-0.6-1.6-0.6c-0.8,0-1.3,0.5-1.3,1.1c0,1.6,3.5,1.2,3.5,3.6
			c0,1.2-1,2.4-2.8,2.4c-0.7,0-1.5-0.2-2.3-0.6l0.2-1.2l0.2-0.1c0.6,0.6,1.4,0.8,2.1,0.8c0.9,0,1.4-0.6,1.4-1.2
			c0-1.6-3.6-1.2-3.6-3.7c0-1.3,1-2.2,2.7-2.2C55.1,93.1,55.8,93.2,56.4,93.5z"/>
	</g>
	<path fill="#2B4F7A" d="M46.3,26.9c-0.2-0.9-0.6-1.7-1.2-2.4c-1.1-1.2-2.5-1.8-4.1-1.9c-0.3,0-0.7,0.1-1-0.1
		c-0.2-0.1-0.3-0.5-0.5-0.8c-0.3-0.5-0.6-0.9-0.8-1.4c-0.4-0.8-1-1.1-1.8-1c-1.2,0-2.5,0-3.7,0c-1.3,0-2.6,0-3.9,0
		c-0.8,0-1.5,0.3-1.8,1.1c-0.4,0.7-0.8,1.4-1.1,2c-0.1,0.1-0.2,0.2-0.4,0.2c-0.6,0-1.2,0-1.8,0c0-0.1,0-0.2-0.1-0.3
		c-0.2-0.4-0.5-0.7-0.9-0.7c-0.8,0-1.6,0-2.5,0c-0.5,0-0.9,0.4-1,1c0,0.3-0.1,0.4-0.4,0.5c-1,0.5-1.6,1.3-1.8,2.4V38
		c0.1,0.4,0.2,0.9,0.4,1.4c1,2.1,2.7,3.2,5.1,3.2c5.1,0,10.1,0,15.2,0c1,0,2.1,0,3.1,0c2.2-0.1,4.2-1.7,4.8-3.9
		c0-0.2,0.1-0.3,0.1-0.5L46.3,26.9L46.3,26.9z M22,26.5c-0.9,0-1.7-0.8-1.7-1.7c0-0.9,0.8-1.6,1.7-1.6c0.9,0,1.7,0.7,1.7,1.6
		C23.7,25.8,22.9,26.5,22,26.5z M33.1,39.3c-4.4,0-7.9-3.6-7.8-7.9c0.1-4.4,3.6-7.8,7.9-7.8s7.8,3.5,7.8,7.9
		C40.9,36,37.3,39.4,33.1,39.3z M33.1,37.3c-3.2,0-5.8-2.7-5.7-5.8c0-3.2,2.7-5.7,5.8-5.7c3.2,0,5.7,2.6,5.7,5.8
		C38.8,34.8,36.2,37.3,33.1,37.3z"/>
</g>
</svg>
