<?xml version="1.0" encoding="utf-8"?>
<!-- Generator: Adobe Illustrator 18.0.0, SVG Export Plug-In . SVG Version: 6.00 Build 0)  -->
<!DOCTYPE svg PUBLIC "-//W3C//DTD SVG 1.1//EN" "http://www.w3.org/Graphics/SVG/1.1/DTD/svg11.dtd">
<svg version="1.1" id="Layer_1" xmlns="http://www.w3.org/2000/svg" xmlns:xlink="http://www.w3.org/1999/xlink" x="0px" y="0px"
	 viewBox="-2 0 70 110" enable-background="new -2 0 70 110" xml:space="preserve">
<circle fill="#FFFFFF" stroke="#7E9B3D" stroke-width="3" stroke-miterlimit="10" cx="33" cy="32.1" r="23.1"/>
<line fill="none" stroke="#E79D2D" stroke-width="3" stroke-miterlimit="10" x1="10.3" y1="66.8" x2="55.7" y2="66.8"/>
<g enable-background="new    ">
	<path fill="#2B4F7A" d="M21.8,87.2l-2.1-6.3h-0.1l-2.2,6.3h-1.4l-3.5-10.9h1.4l0.2,1.1l2.7,8.3h0.1l2.3-6.6l-0.9-2.8h1.4l0.3,1.2
		l2.7,8.2h0.1l3-8.3l0.3-1.1h1.3l-3.9,10.9H21.8z"/>
	<path fill="#2B4F7A" d="M32.5,81.3c0,0.6-0.2,3.6-0.2,4.2c0,0.5,0.1,0.7,0.5,0.7c0.1,0,0.3,0,0.6-0.1l0.1,0.1L33.4,87
		c-0.3,0.2-0.6,0.3-1,0.3c-0.7-0.1-1.1-0.5-1.2-1.3h-0.1c-0.6,0.6-1.2,1-1.8,1.3c-1.5,0-2.4-0.8-2.4-2.1c0-1,0.6-1.6,1.6-1.8
		l2.8-0.6l0-1.1c0-0.9-0.5-1.4-1.3-1.4c-0.8,0-1.5,0.4-2.4,1.1l-0.1-0.1l-0.2-1c0.9-0.7,1.9-1.1,2.9-1.1
		C31.6,79.3,32.5,80.1,32.5,81.3z M28.7,84.2c-0.4,0.1-0.6,0.3-0.6,0.8c0,0.7,0.5,1.2,1.2,1.2c0.7,0,1.3-0.4,1.9-1.2l0.1-1.4
		L28.7,84.2z"/>
	<path fill="#2B4F7A" d="M39.1,85.8l0.2,0.1l-0.1,0.9c-0.6,0.3-1.1,0.4-1.7,0.5c-1.3-0.3-1.8-0.9-1.8-2.2l0.1-1.2l0-3.5h-1.1
		l-0.1-0.1l0.1-0.8h1v-1.3l1.2-0.5l0.1,0.1l0,1.6h2.3l0.1,0.1l-0.1,0.8h-2.3L36.8,85c0,0.9,0.3,1.2,1.1,1.2
		C38.2,86.2,38.6,86.1,39.1,85.8z"/>
	<path fill="#2B4F7A" d="M45.4,79.8l-0.2,1.2L45,81c-0.5-0.3-1.1-0.6-1.8-0.6c-1.3,0-2.1,1.1-2.1,2.9c0,1.8,0.8,3,2.2,3
		c0.6,0,1.3-0.2,1.9-0.6l0.2,0.1l-0.2,1.1c-0.6,0.3-1.4,0.4-2.1,0.4c-2.1,0-3.3-1.5-3.3-4c0-2.5,1.3-4.1,3.5-4.1
		C44.1,79.3,44.9,79.5,45.4,79.8z"/>
	<path fill="#2B4F7A" d="M52.1,81.9c0-0.9-0.4-1.5-1.3-1.5c-0.8,0-1.6,0.4-2.3,1.2l0,2.1l0.1,3.4h-1.3l0.1-3.3l-0.1-8.5l1.3-0.1
		l-0.1,5.3h0.1c0.7-0.6,1.5-1,2.2-1.2c1.7,0,2.6,0.8,2.6,2.3l0,2.2l0.1,3.4h-1.4L52.1,81.9z"/>
</g>
<polygon fill="#2B4F7A" points="27,18.6 27,46.1 46,32.3 "/>
</svg>
